<mxfile host="app.diagrams.net" modified="2020-12-20T09:17:53.309Z" agent="5.0 (Macintosh; Intel Mac OS X 10_15_6) AppleWebKit/605.1.15 (KHTML, like Gecko) Version/14.0.2 Safari/605.1.15" etag="Qkm30rOGIUTYOVNFvGmf" version="14.0.4" type="github">
  <diagram id="9nrR3ezkZpqUJK5uD5JU" name="第 1 页">
    <mxGraphModel dx="946" dy="620" grid="1" gridSize="10" guides="1" tooltips="1" connect="1" arrows="1" fold="1" page="1" pageScale="1" pageWidth="3300" pageHeight="2339" math="0" shadow="0">
      <root>
        <mxCell id="0" />
        <mxCell id="1" parent="0" />
        <mxCell id="mVGUyFBQ0nvd3tX0EmPT-1" value="1" style="rounded=0;whiteSpace=wrap;html=1;strokeWidth=2;fillColor=#dae8fc;strokeColor=#6c8ebf;" vertex="1" parent="1">
          <mxGeometry x="160" y="200" width="80" height="40" as="geometry" />
        </mxCell>
        <mxCell id="mVGUyFBQ0nvd3tX0EmPT-2" value="2" style="rounded=0;whiteSpace=wrap;html=1;strokeWidth=2;fillColor=#dae8fc;strokeColor=#6c8ebf;" vertex="1" parent="1">
          <mxGeometry x="240" y="200" width="80" height="40" as="geometry" />
        </mxCell>
        <mxCell id="mVGUyFBQ0nvd3tX0EmPT-3" value="3" style="rounded=0;whiteSpace=wrap;html=1;strokeWidth=2;fillColor=#dae8fc;strokeColor=#6c8ebf;" vertex="1" parent="1">
          <mxGeometry x="320" y="200" width="80" height="40" as="geometry" />
        </mxCell>
        <mxCell id="mVGUyFBQ0nvd3tX0EmPT-4" value="4" style="rounded=0;whiteSpace=wrap;html=1;strokeWidth=2;fillColor=#dae8fc;strokeColor=#6c8ebf;" vertex="1" parent="1">
          <mxGeometry x="400" y="200" width="80" height="40" as="geometry" />
        </mxCell>
        <mxCell id="mVGUyFBQ0nvd3tX0EmPT-5" value="7" style="rounded=0;whiteSpace=wrap;html=1;strokeWidth=2;fillColor=#dae8fc;strokeColor=#6c8ebf;" vertex="1" parent="1">
          <mxGeometry x="640" y="200" width="80" height="40" as="geometry" />
        </mxCell>
        <mxCell id="mVGUyFBQ0nvd3tX0EmPT-29" value="" style="rounded=0;orthogonalLoop=1;jettySize=auto;html=1;strokeWidth=2;startArrow=none;startFill=0;entryX=0.5;entryY=0;entryDx=0;entryDy=0;" edge="1" parent="1" source="mVGUyFBQ0nvd3tX0EmPT-6" target="mVGUyFBQ0nvd3tX0EmPT-25">
          <mxGeometry relative="1" as="geometry" />
        </mxCell>
        <mxCell id="mVGUyFBQ0nvd3tX0EmPT-30" style="edgeStyle=none;rounded=0;orthogonalLoop=1;jettySize=auto;html=1;exitX=0.25;exitY=1;exitDx=0;exitDy=0;startArrow=none;startFill=0;strokeWidth=2;" edge="1" parent="1" source="mVGUyFBQ0nvd3tX0EmPT-6">
          <mxGeometry relative="1" as="geometry">
            <mxPoint x="460" y="279" as="targetPoint" />
          </mxGeometry>
        </mxCell>
        <mxCell id="mVGUyFBQ0nvd3tX0EmPT-6" value="5" style="rounded=0;whiteSpace=wrap;html=1;strokeWidth=2;strokeColor=#6c8ebf;fillColor=#808080;" vertex="1" parent="1">
          <mxGeometry x="480" y="200" width="80" height="40" as="geometry" />
        </mxCell>
        <mxCell id="mVGUyFBQ0nvd3tX0EmPT-7" value="6" style="rounded=0;whiteSpace=wrap;html=1;strokeWidth=2;fillColor=#dae8fc;strokeColor=#6c8ebf;" vertex="1" parent="1">
          <mxGeometry x="560" y="200" width="80" height="40" as="geometry" />
        </mxCell>
        <mxCell id="mVGUyFBQ0nvd3tX0EmPT-14" value="" style="edgeStyle=orthogonalEdgeStyle;rounded=0;orthogonalLoop=1;jettySize=auto;html=1;" edge="1" parent="1" source="mVGUyFBQ0nvd3tX0EmPT-8" target="mVGUyFBQ0nvd3tX0EmPT-13">
          <mxGeometry relative="1" as="geometry" />
        </mxCell>
        <mxCell id="mVGUyFBQ0nvd3tX0EmPT-15" value="next" style="edgeLabel;html=1;align=center;verticalAlign=middle;resizable=0;points=[];" vertex="1" connectable="0" parent="mVGUyFBQ0nvd3tX0EmPT-14">
          <mxGeometry x="-0.075" y="1" relative="1" as="geometry">
            <mxPoint as="offset" />
          </mxGeometry>
        </mxCell>
        <mxCell id="mVGUyFBQ0nvd3tX0EmPT-8" value="0" style="rounded=0;whiteSpace=wrap;html=1;strokeWidth=2;fillColor=#dae8fc;strokeColor=#6c8ebf;" vertex="1" parent="1">
          <mxGeometry x="80" y="200" width="80" height="40" as="geometry" />
        </mxCell>
        <mxCell id="mVGUyFBQ0nvd3tX0EmPT-11" style="edgeStyle=orthogonalEdgeStyle;rounded=0;orthogonalLoop=1;jettySize=auto;html=1;dashed=1;" edge="1" parent="1" source="mVGUyFBQ0nvd3tX0EmPT-10" target="mVGUyFBQ0nvd3tX0EmPT-5">
          <mxGeometry relative="1" as="geometry" />
        </mxCell>
        <mxCell id="mVGUyFBQ0nvd3tX0EmPT-12" value="数组" style="edgeLabel;html=1;align=center;verticalAlign=middle;resizable=0;points=[];" vertex="1" connectable="0" parent="mVGUyFBQ0nvd3tX0EmPT-11">
          <mxGeometry relative="1" as="geometry">
            <mxPoint x="10" as="offset" />
          </mxGeometry>
        </mxCell>
        <mxCell id="mVGUyFBQ0nvd3tX0EmPT-10" value="Node&amp;lt;K,V&amp;gt;[] table;" style="text;html=1;strokeColor=none;fillColor=none;align=center;verticalAlign=middle;whiteSpace=wrap;rounded=0;" vertex="1" parent="1">
          <mxGeometry x="800" y="200" width="110" height="40" as="geometry" />
        </mxCell>
        <mxCell id="mVGUyFBQ0nvd3tX0EmPT-17" value="" style="edgeStyle=orthogonalEdgeStyle;rounded=0;orthogonalLoop=1;jettySize=auto;html=1;dashed=1;" edge="1" parent="1" source="mVGUyFBQ0nvd3tX0EmPT-13" target="mVGUyFBQ0nvd3tX0EmPT-16">
          <mxGeometry relative="1" as="geometry" />
        </mxCell>
        <mxCell id="mVGUyFBQ0nvd3tX0EmPT-13" value="Node" style="rounded=0;whiteSpace=wrap;html=1;strokeWidth=2;fillColor=#dae8fc;strokeColor=#6c8ebf;" vertex="1" parent="1">
          <mxGeometry x="80" y="300" width="80" height="40" as="geometry" />
        </mxCell>
        <mxCell id="mVGUyFBQ0nvd3tX0EmPT-16" value="null" style="text;html=1;strokeColor=none;fillColor=none;align=center;verticalAlign=middle;whiteSpace=wrap;rounded=0;" vertex="1" parent="1">
          <mxGeometry x="100" y="370" width="40" height="20" as="geometry" />
        </mxCell>
        <mxCell id="mVGUyFBQ0nvd3tX0EmPT-31" style="edgeStyle=none;rounded=0;orthogonalLoop=1;jettySize=auto;html=1;exitX=0.25;exitY=1;exitDx=0;exitDy=0;entryX=0.5;entryY=0;entryDx=0;entryDy=0;startArrow=none;startFill=0;strokeWidth=2;" edge="1" parent="1" source="mVGUyFBQ0nvd3tX0EmPT-24" target="mVGUyFBQ0nvd3tX0EmPT-26">
          <mxGeometry relative="1" as="geometry" />
        </mxCell>
        <mxCell id="mVGUyFBQ0nvd3tX0EmPT-32" style="edgeStyle=none;rounded=0;orthogonalLoop=1;jettySize=auto;html=1;exitX=0.75;exitY=1;exitDx=0;exitDy=0;entryX=0.5;entryY=0;entryDx=0;entryDy=0;startArrow=none;startFill=0;strokeWidth=2;" edge="1" parent="1" source="mVGUyFBQ0nvd3tX0EmPT-24" target="mVGUyFBQ0nvd3tX0EmPT-28">
          <mxGeometry relative="1" as="geometry" />
        </mxCell>
        <mxCell id="mVGUyFBQ0nvd3tX0EmPT-24" value="Node" style="rounded=0;whiteSpace=wrap;html=1;strokeWidth=2;strokeColor=#6c8ebf;fillColor=#FF6666;" vertex="1" parent="1">
          <mxGeometry x="420" y="280" width="80" height="40" as="geometry" />
        </mxCell>
        <mxCell id="mVGUyFBQ0nvd3tX0EmPT-33" style="edgeStyle=none;rounded=0;orthogonalLoop=1;jettySize=auto;html=1;exitX=0.75;exitY=1;exitDx=0;exitDy=0;startArrow=none;startFill=0;strokeWidth=2;" edge="1" parent="1" source="mVGUyFBQ0nvd3tX0EmPT-25" target="mVGUyFBQ0nvd3tX0EmPT-27">
          <mxGeometry relative="1" as="geometry" />
        </mxCell>
        <mxCell id="mVGUyFBQ0nvd3tX0EmPT-25" value="Node" style="rounded=0;whiteSpace=wrap;html=1;strokeWidth=2;strokeColor=#6c8ebf;fillColor=#FF6666;" vertex="1" parent="1">
          <mxGeometry x="540" y="280" width="80" height="40" as="geometry" />
        </mxCell>
        <mxCell id="mVGUyFBQ0nvd3tX0EmPT-26" value="Node" style="rounded=0;whiteSpace=wrap;html=1;strokeWidth=2;strokeColor=#6c8ebf;fillColor=#808080;" vertex="1" parent="1">
          <mxGeometry x="360" y="360" width="80" height="40" as="geometry" />
        </mxCell>
        <mxCell id="mVGUyFBQ0nvd3tX0EmPT-27" value="Node" style="rounded=0;whiteSpace=wrap;html=1;strokeWidth=2;strokeColor=#6c8ebf;fillColor=#808080;" vertex="1" parent="1">
          <mxGeometry x="600" y="360" width="80" height="40" as="geometry" />
        </mxCell>
        <mxCell id="mVGUyFBQ0nvd3tX0EmPT-28" value="Node" style="rounded=0;whiteSpace=wrap;html=1;strokeWidth=2;strokeColor=#6c8ebf;fillColor=#808080;" vertex="1" parent="1">
          <mxGeometry x="480" y="360" width="80" height="40" as="geometry" />
        </mxCell>
      </root>
    </mxGraphModel>
  </diagram>
</mxfile>
